<?xml version="1.0" encoding="utf-8"?>
<!-- Generator: Adobe Illustrator 19.0.0, SVG Export Plug-In . SVG Version: 6.00 Build 0)  -->
<svg version="1.1" id="Capa_1" xmlns="http://www.w3.org/2000/svg" xmlns:xlink="http://www.w3.org/1999/xlink" x="0px" y="0px"
	 viewBox="-545 802.2 444.8 444.8" style="enable-background:new -545 802.2 444.8 444.8;" xml:space="preserve">
<g>
	<path d="M-418.2,888l-120,119.8c-4.5,4.8-6.8,10.4-6.8,16.8c0,6.5,2.3,12,6.8,16.6l120,120c4.7,4.7,10.3,7,16.8,7
		c6.6,0,12.2-2.3,16.6-7l13.8-13.8c4.7-4.4,7-10,7-16.6c0-6.6-2.3-12.2-7-16.6l-89.4-89.6L-371,935c4.7-4.4,7-10,7-16.6
		c0-6.5-2.3-12.1-7-16.8l-13.8-13.8c-4.5-4.5-10.1-6.8-16.6-6.8C-407.9,881-413.5,883.3-418.2,888z"/>
</g>
<g>
	<path d="M-227,1161.2l120-119.8c4.5-4.8,6.8-10.4,6.8-16.8c0-6.5-2.3-12-6.8-16.6l-120-120c-4.7-4.7-10.3-7-16.8-7
		c-6.6,0-12.2,2.3-16.6,7l-13.8,13.8c-4.7,4.4-7,10-7,16.6c0,6.6,2.3,12.2,7,16.6l89.4,89.6l-89.4,89.6c-4.7,4.4-7,10-7,16.6
		c0,6.5,2.3,12.1,7,16.8l13.8,13.8c4.5,4.5,10.1,6.8,16.6,6.8C-237.2,1168.2-231.7,1165.8-227,1161.2z"/>
</g>
</svg>
