<?xml version="1.0" encoding="utf-8"?>
<!-- Generator: Adobe Illustrator 19.0.0, SVG Export Plug-In . SVG Version: 6.00 Build 0)  -->
<svg version="1.1" id="Capa_1" xmlns="http://www.w3.org/2000/svg" xmlns:xlink="http://www.w3.org/1999/xlink" x="0px" y="0px"
	 viewBox="-545 802.2 444.8 444.8" style="enable-background:new -545 802.2 444.8 444.8;" xml:space="preserve">
<g>
	<path d="M-534.1,968.3l185.6,185.9c7.4,7,16.1,10.6,26,10.6c10.1,0,18.7-3.5,25.7-10.6L-111,968.3c7.2-7.2,10.8-15.9,10.8-26
		c0-10.3-3.6-18.8-10.8-25.7l-21.4-21.4c-6.9-7.2-15.4-10.9-25.7-10.9c-10.3,0-18.8,3.6-25.7,10.9l-138.8,138.5l-138.8-138.5
		c-6.8-7.2-15.4-10.9-25.7-10.9c-10.1,0-18.7,3.6-26,10.9l-21.4,21.4c-7,7-10.6,15.6-10.6,25.7C-545,952.5-541.4,961.1-534.1,968.3z
		"/>
</g>
</svg>
